<svg xmlns="http://www.w3.org/2000/svg" width="110" height="32" viewBox="0 0 110 32">
    <g fill="none">
        <path fill="#FFF" d="M11.798 30.522c-.646-.721-1.22-1.505-1.711-2.34H3.206V.033H0V29.9c0 .835.518 1.511 1.352 1.511H12.68c-.303-.281-.598-.573-.882-.888zM16.679 26.176c-1.404-1.582-2.106-3.584-2.106-6.005 0-2.42.702-4.423 2.106-6.008 1.495-1.67 3.437-2.504 5.827-2.504 2.42 0 4.333.835 5.737 2.504 1.345 1.585 2.018 3.587 2.018 6.008s-.673 4.423-2.018 6.005c-1.404 1.67-3.316 2.504-5.737 2.504-2.39 0-4.332-.834-5.827-2.504m-2.51-14.21c-1.974 2.214-2.96 4.95-2.96 8.205 0 3.256.986 5.993 2.96 8.212 2.031 2.226 4.66 3.343 7.889 3.353 3.556 0 6.23-1.316 8.022-3.946v2.076c0 .834.676 1.51 1.511 1.51h1.85V8.967H30.08v3.617c-1.822-2.657-4.419-3.986-7.791-3.988-3.373-.001-6.08 1.122-8.12 3.37M41.89 26.176c-1.347-1.582-2.02-3.584-2.018-6.005.002-2.42.674-4.423 2.017-6.008 1.403-1.67 3.314-2.504 5.735-2.504 2.421 0 4.364.835 5.83 2.504 1.402 1.585 2.104 3.587 2.106 6.008.002 2.421-.7 4.423-2.106 6.005-1.495 1.67-3.438 2.504-5.83 2.504-2.39 0-4.302-.834-5.735-2.504M36.69 0v29.866c0 .834.676 1.51 1.51 1.51h1.851V27.79c1.794 2.621 4.379 3.936 7.755 3.946 3.406 0 6.11-1.12 8.114-3.362 2.002-2.22 3.003-4.955 3.003-8.203 0-3.248-.997-5.983-2.992-8.206-2.003-2.239-4.618-3.36-7.844-3.361-3.524 0-6.2 1.329-8.025 3.987V0H36.69zM64.835 14.01V8.966H61.47v20.9c0 .834.676 1.51 1.51 1.51h1.854v-9.86c-.058-2.334.703-4.614 2.15-6.445 1.524-1.943 3.497-2.914 5.92-2.914h.403V8.966l-.103-.017c-.203-.022-.408-.034-.612-.034-3.306-.01-7.088 2.903-7.758 5.095M75.949 8.966v20.9c0 .834.676 1.51 1.51 1.51h1.845V8.967H75.95zM88.871 9.74c-1.142.725-2.144 1.65-2.958 2.732V8.966h-3.361v20.9c0 .834.676 1.51 1.51 1.51h1.851V18.469c0-2.003.658-3.647 1.973-4.93 1.282-1.244 3.009-1.923 4.794-1.884 1.855 0 3.365.613 4.528 1.839 1.163 1.226 1.746 2.87 1.75 4.93v11.443c0 .834.676 1.51 1.51 1.51h1.851V18.333c0-2.989-.927-5.394-2.782-7.215-.792-.828-1.757-1.47-2.825-1.884-1.235-.445-2.541-.657-3.854-.626-1.41-.026-2.797.36-3.99 1.113"/>
        <circle cx="107.459" cy="29.479" r="1.898" fill="#ED1A3B"/>
    </g>
</svg>
